<?xml version="1.0" standalone="no"?>
<svg xmlns:xlink="http://www.w3.org/1999/xlink" id="wave" style="transform:rotate(0deg); transition: 0.3s" viewBox="0 0 1440 140" version="1.1" xmlns="http://www.w3.org/2000/svg"><defs><linearGradient id="sw-gradient-0" x1="0" x2="0" y1="1" y2="0"><stop stop-color="rgba(222, 236, 218, 1)" offset="0%"/><stop stop-color="rgba(222, 236, 218, 1)" offset="100%"/></linearGradient></defs><path style="transform:translate(0, 0px); opacity:1" fill="url(#sw-gradient-0)" d="M0,28L80,39.7C160,51,320,75,480,72.3C640,70,800,42,960,28C1120,14,1280,14,1440,18.7C1600,23,1760,33,1920,32.7C2080,33,2240,23,2400,16.3C2560,9,2720,5,2880,14C3040,23,3200,47,3360,51.3C3520,56,3680,42,3840,42C4000,42,4160,56,4320,51.3C4480,47,4640,23,4800,23.3C4960,23,5120,47,5280,53.7C5440,61,5600,51,5760,51.3C5920,51,6080,61,6240,56C6400,51,6560,33,6720,39.7C6880,47,7040,79,7200,79.3C7360,79,7520,47,7680,39.7C7840,33,8000,51,8160,70C8320,89,8480,107,8640,98C8800,89,8960,51,9120,35C9280,19,9440,23,9600,35C9760,47,9920,65,10080,74.7C10240,84,10400,84,10560,77C10720,70,10880,56,11040,63C11200,70,11360,98,11440,112L11520,126L11520,140L11440,140C11360,140,11200,140,11040,140C10880,140,10720,140,10560,140C10400,140,10240,140,10080,140C9920,140,9760,140,9600,140C9440,140,9280,140,9120,140C8960,140,8800,140,8640,140C8480,140,8320,140,8160,140C8000,140,7840,140,7680,140C7520,140,7360,140,7200,140C7040,140,6880,140,6720,140C6560,140,6400,140,6240,140C6080,140,5920,140,5760,140C5600,140,5440,140,5280,140C5120,140,4960,140,4800,140C4640,140,4480,140,4320,140C4160,140,4000,140,3840,140C3680,140,3520,140,3360,140C3200,140,3040,140,2880,140C2720,140,2560,140,2400,140C2240,140,2080,140,1920,140C1760,140,1600,140,1440,140C1280,140,1120,140,960,140C800,140,640,140,480,140C320,140,160,140,80,140L0,140Z"/></svg>